# xmcd
#
# Track frame offsets:
#	150
#	12245
#	27682
#	42112
#	58025
#	70347
#	81172
#	93332
#	105429
#	114522
#	126132
#	137932
#	149032
#	163140
#	175025
#	185517
#	198027
#	211040
#	223797
#	234715
#	246445
#	257145
#	267652
#
# Disc length: 3744 seconds
# Revision: 1
# Processed by: cddbd v1.5.2PL0 Copyright (c) Steve Scherf et al.
# Submitted via: dBpowerAMP V12.0
#
DISCID=5d0e9e17
DTITLE=Jimmy Reed - Jimmy Reed at Carnegie Hall 
DYEAR=1961
DGENRE=Blues
TTITLE0=Bright Lights Big City
TTITLE1=I'm Mr. Luck
TTITLE2=Baby What's Wrong
TTITLE3=Found Joy
TTITLE4=Kind of Lonesome
TTITLE5=Aw Shucks, Hush Your Mouth
TTITLE6=Tell Me You Love Me
TTITLE7=Blue Carnegie
TTITLE8=I'm a Love You
TTITLE9=Hold Me Close
TTITLE10=Blue Blue Water
TTITLE11=Baby What You Want Me to Do
TTITLE12=You Don't Have to Go
TTITLE13=Hush Hush
TTITLE14=Found Love
TTITLE15=Honest I Do
TTITLE16=You Got Me Dizzy
TTITLE17=Big Boss Man
TTITLE18=Take Out Some Insurance
TTITLE19=Boogie in the Dark
TTITLE20=Going to New York
TTITLE21=Ain't That Lovin' You Baby
TTITLE22=The Sun Is Shining
EXTD=
EXTT0=
EXTT1=
EXTT2=
EXTT3=
EXTT4=
EXTT5=
EXTT6=
EXTT7=
EXTT8=
EXTT9=
EXTT10=
EXTT11=
EXTT12=
EXTT13=
EXTT14=
EXTT15=
EXTT16=
EXTT17=
EXTT18=
EXTT19=
EXTT20=
EXTT21=
EXTT22=
PLAYORDER=
